#!OML:ASF E:\acrobat2\Project_11_07_03\Capture day 1\Session 1\Acrobat.ASF
:FULLY-SPECIFIED
:DEGREES
881
root 5.35485 27.5241 -17.2887 4.48981 3.66528 0.619065
lowerback 3.02223 0.411461 6.44797
upperback 2.41919 0.681462 1.16264
thorax 0.863018 0.41676 -2.42939
lowerneck 0.650283 -0.721239 -4.23337
upperneck 20.5295 -0.283015 -2.36532
head 6.128 -0.587344 -0.0514554
rclavicle 1.2921e-014 -1.98785e-014
rhumerus -43.4884 3.04576 -76.5148
rradius 56.9196
rwrist 9.49755
rhand -27.543 -13.4317
rfingers 7.12502
rthumb -0.944562 -43.4094
lclavicle 1.2921e-014 -1.98785e-014
lhumerus -38.954 -3.49308 74.7462
lradius 63.447
lwrist -2.12147
lhand -39.5029 -42.7828
lfingers 7.12502
lthumb -12.4886 -13.176
rfemur -14.8766 -2.67907 20.3859
rtibia 32.7252
rfoot -28.602 -10.7122
rtoes -18.4865
lfemur -24.2794 3.89465 -15.1281
ltibia 44.4369
lfoot 1.4915 -17.7354
ltoes 38.7403
882
root 5.34596 27.5285 -17.346 4.62272 3.78797 0.574932
lowerback 2.95128 0.50611 6.43737
upperback 2.31007 0.806325 1.19588
thorax 0.80039 0.474544 -2.39171
lowerneck 0.772125 -0.794303 -4.26954
upperneck 19.809 -0.42646 -2.27681
head 5.87934 -0.637176 -0.0214738
rclavicle -5.96354e-016 -9.54166e-015
rhumerus -43.7512 3.00738 -76.3298
rradius 56.5473
rwrist 9.57086
rhand -27.4625 -13.4365
rfingers 7.12502
rthumb -0.866823 -43.4145
lclavicle -5.96354e-016 -9.54166e-015
lhumerus -39.1347 -3.69947 74.912
lradius 63.7056
lwrist -2.40719
lhand -39.2816 -42.9501
lfingers 7.12502
lthumb -12.2752 -13.3304
rfemur -14.4563 -2.49596 20.4766
rtibia 32.241
rfoot -29.3381 -10.6818
rtoes -18.3801
lfemur -24.6461 4.50918 -15.2296
ltibia 44.0708
lfoot 0.996692 -17.765
ltoes 39.0531
883
root 5.33729 27.5354 -17.4005 4.76002 3.9042 0.52756
lowerback 2.85905 0.588892 6.41583
upperback 2.19996 0.913551 1.22667
thorax 0.746777 0.523693 -2.34977
lowerneck 0.880022 -0.844486 -4.31581
upperneck 19.0929 -0.535538 -2.19377
head 5.63604 -0.672234 0.0101186
rclavicle 6.55989e-015 1.03368e-014
rhumerus -44.0158 2.97584 -76.167
rradius 56.1804
rwrist 9.69087
rhand -27.3717 -13.4661
rfingers 7.12502
rthumb -0.779093 -43.4444
lclavicle 6.55989e-015 1.03368e-014
lhumerus -39.3537 -3.87176 75.0217
lradius 63.9684
lwrist -2.73856
lhand -39.0509 -43.1608
lfingers 7.12502
lthumb -12.0527 -13.5279
rfemur -13.9682 -2.32686 20.5508
rtibia 31.6655
rfoot -30.053 -10.6409
rtoes -18.5061
lfemur -24.924 5.10112 -15.3744
ltibia 43.4911
lfoot 0.345442 -17.7608
ltoes 38.6673
884
root 5.32895 27.5441 -17.4522 4.89223 4.03331 0.476867
lowerback 2.74887 0.656084 6.38492
upperback 2.08986 0.998469 1.25712
thorax 0.700947 0.561887 -2.30218
lowerneck 0.983424 -0.87523 -4.36527
upperneck 18.3885 -0.61473 -2.12319
head 5.39852 -0.694447 0.0396165
rclavicle 4.77083e-015 3.49861e-014
rhumerus -44.2905 2.9577 -76.0178
rradius 55.837
rwrist 9.85692
rhand -27.2515 -13.5036
rfingers 7.12502
rthumb -0.663005 -43.4824
lclavicle 4.77083e-015 3.49861e-014
lhumerus -39.6087 -4.0058 75.0802
lradius 64.233
lwrist -3.1023
lhand -38.8303 -43.3389
lfingers 7.12502
lthumb -11.84 -13.6936
rfemur -13.4041 -2.19361 20.6086
rtibia 30.996
rfoot -30.7181 -10.6365
rtoes -19.0009
lfemur -25.1137 5.65468 -15.5635
ltibia 42.7399
lfoot -0.329329 -17.7084
ltoes 37.6339
885
root 5.32074 27.5538 -17.5016 5.01424 4.1922 0.418563
lowerback 2.62901 0.704016 6.34711
upperback 1.98404 1.05674 1.29267
thorax 0.662284 0.587038 -2.24473
lowerneck 1.08556 -0.893321 -4.42093
upperneck 17.6748 -0.675205 -2.05955
head 5.15964 -0.708436 0.0687358
rclavicle -2.18663e-015 7.15625e-015
rhumerus -44.5706 2.96203 -75.8752
rradius 55.5301
rwrist 10.0495
rhand -27.1164 -13.5601
rfingers 7.12502
rthumb -0.532514 -43.5391
lclavicle -2.18663e-015 7.15625e-015
lhumerus -39.8924 -4.0984 75.0956
lradius 64.5083
lwrist -3.4784
lhand -38.6426 -43.4389
lfingers 7.12502
lthumb -11.659 -13.7833
rfemur -12.7731 -2.09357 20.659
rtibia 30.2547
rfoot -31.3242 -10.6854
rtoes -19.7895
lfemur -25.2202 6.15122 -15.7854
ltibia 41.8651
lfoot -0.805711 -17.6032
ltoes 36.3775
886
root 5.3122 27.5637 -17.5492 5.12465 4.38025 0.341658
lowerback 2.5068 0.737855 6.31195
upperback 1.88547 1.09587 1.33484
thorax 0.630641 0.603049 -2.18144
lowerneck 1.19191 -0.914145 -4.46788
upperneck 16.9219 -0.740249 -2.00031
head 4.90917 -0.723721 0.0949202
rclavicle -9.54166e-015 0
rhumerus -44.8607 2.98348 -75.7404
rradius 55.2709
rwrist 10.246
rhand -27.0022 -13.6198
rfingers 7.12502
rthumb -0.422252 -43.5992
lclavicle -9.54166e-015 0
lhumerus -40.1923 -4.17009 75.0749
lradius 64.8095
lwrist -3.8175
lhand -38.4945 -43.4221
lfingers 7.12502
lthumb -11.5162 -13.7584
rfemur -12.0974 -1.98232 20.7215
rtibia 29.4732
rfoot -31.8737 -10.7742
rtoes -20.6577
lfemur -25.2523 6.56725 -16.0056
ltibia 40.9261
lfoot -0.794918 -17.4421
ltoes 35.7765
887
root 5.30343 27.5732 -17.5955 5.21806 4.58896 0.239162
lowerback 2.38949 0.768564 6.298
upperback 1.80057 1.13105 1.37453
thorax 0.610517 0.617965 -2.13232
lowerneck 1.3784 -0.943714 -4.51143
upperneck 15.6826 -0.834626 -1.91277
head 5.0122 -0.741822 0.110037
rclavicle -9.74045e-015 -1.19271e-014
rhumerus -45.1624 2.9878 -75.6162
rradius 55.063
rwrist 10.4344
rhand -26.9302 -13.637
rfingers 7.12502
rthumb -0.352631 -43.6165
lclavicle -9.74045e-015 -1.19271e-014
lhumerus -40.4787 -4.26392 75.0208
lradius 65.1325
lwrist -4.06261
lhand -38.3797 -43.2843
lfingers 7.12502
lthumb -11.4054 -13.6145
rfemur -11.3926 -1.81735 20.8079
rtibia 28.6753
rfoot -32.3714 -10.9003
rtoes -21.5307
lfemur -25.2146 6.85546 -16.1888
ltibia 39.9997
lfoot 0.0230492 -17.1625
ltoes 36.8891
